<?xml version="1.0" encoding="UTF-8"?>
<svg id="Layer_1" xmlns="http://www.w3.org/2000/svg" xmlns:xlink="http://www.w3.org/1999/xlink" xmlns:bx="https://boxy-svg.com" version="1.1" viewBox="0 0 500 500">
  <!-- Generator: Adobe Illustrator 29.3.1, SVG Export Plug-In . SVG Version: 2.1.0 Build 151)  -->
  <defs>
    <style>
      .st0 {
        fill: #394143;
      }

      .st1 {
        fill: #4d6fff;
      }

      .st2 {
        fill: #1d1d1b;
      }

      .st3 {
        fill: #ff514f;
      }

      .st4 {
        fill: #fff;
      }

      .st5 {
        fill: #e9ddbc;
      }

      .st6 {
        fill: #5e6c72;
      }

      .st7 {
        fill: #d367f1;
      }
    </style>
  </defs>
  <rect class="st2" y="0" width="500" height="500"/>
  <g>
    <path class="st3" d="M248.2,76.4h16l37.5,91.5h-21.6l-6.9-18.5h-34.2l-7.7,17.7-20.6-.2,37.5-90.5ZM255.3,101l-12.5,33.5h24.8c0-.1-12.3-33.5-12.3-33.5Z"/>
    <path class="st1" d="M354.9,259.2l59,80-9.5,14.5-95.5-17.5,18.5-15.5,10,1,18.5-30.5-5.5-7.5,4.5-24.5ZM367.9,305.7l-13,20,35.5,8.6-22.5-28.6Z"/>
    <path class="st7" d="M95.2,332.1l61.7-75.4,3.5,21.7-6.2,11.1,18.5,30.1,8-2,18.5,16.5-95.5,13.5-8.5-15.5ZM143.2,301.6l-23,27,34-6-11-21Z"/>
  </g>
  <g>
    <g>
      <path class="st6" bx:shape="pie 416 216 0 178.475 180 360 1@d80b818d" d="M255.8,351.7c-55.5,0-100.4-43.7-100.4-97.7s44.9-97.8,100.4-97.8h0v195.5Z"/>
      <path class="st0" bx:shape="pie 416 216 0 178.475 180 360 1@d80b818d" d="M254.8,351.7c56,0,101.3-43.7,101.4-97.7,0-54-45.3-97.8-101.3-97.8h0v195.5h-.1Z"/>
    </g>
    <path class="st5" d="M252.4,157.7c5.4-.1,8.9,1.8,10.5,5.5l-2,.5c1,2.5.5,3.5-1.5,3l-6.5,3.5-1,4.5-5-1-2-5.5c2.3-1,2.7-2,1-3l1-3-3-2,8.5-2.5Z"/>
    <path class="st5" d="M218.8,163c1.5-.5,2.2-.6,1.7.9l-1,2.1,6.5,1,1.5-3,4.5-2,3.5,1,.5,2,2-1c1.8.8,2,1.7.5,2.5-.5,1.5,0,2,1.5,1.5l-1,2-2-1,.5,1.5-.5,1.5h-2l-2.5-1.5,1-2.5c2.2.8,2.9-.2,2-3l-9,2-.5,3-1-2-4,1-7.5,5.5,3,6-1,4.5,4-2.5,1.5-2.5,3.5-1.5,2-5.5c2.5-.7,4.2-.2,5,1.5l1.5,3.5,2.5-1.5c-1.2,3.6-.8,5.1,1.5,4.5l3,4-7,2-5-1-4.5,2c-.8,1.8-.2,2.4,1.5,2l2.5-1c-1.4,3.5-.6,4.8,2.5,4v1l-5-1-4,1-2.5,2.5c.5,1.5,0,2-1.5,1.5l-3.5,1c.8,1.8.2,2.4-1.5,2l-2.5,1c.7,3.1-.2,5.1-2.5,6l-6.5,3.5-1,8-1.5,2.5-.5-8-8-2-.5,2-3-2-4.5,3.5-3,5-1,9,2.5,3.5,2-1,1.5.5,2.5-4.5,2.5.5-2,2-2,7.5c3.1-.8,5.1-.3,6,1.5,1.3.8-1.9,8-2,8l.8,1,2.4,2.9v.8l-1.8-1.4-1.4-1.4c.1-1-.6-1.6-2-1.5v-3.5l-2.5-3.5-3.5-2.5-1-3.5-2.5,1c-3.3-2-5.1-5.5-5.5-10.5l2-3v-12l2-3-1-3,1.8-7c-1.1.1-.5-2.9-.4-2.8-.9-.2,13.4-14.7,14.2-14.8,8.6-7.2,19.1-13.1,28.7-16.8Z"/>
    <g>
      <path class="st5" d="M287.9,165.1s10.7,1.7,10.5,1.5l-1-1.5c12.8,6.1,23.8,13.9,32.9,23.6,8.4,8.9,16.4,20.1,22.1,38,1,1.6,3.4,17.4,3.2,17.3,0,0,.7,6.9.6,10.4-.1,6.6-.8,12.9-1.2,15.1-1.1,6.6-3.7,15.7-7.3,23.3-8.8,18.3-17.9,27.4-18.2,27.1l-1.3-3.4,2-2c.2-5.6,1.5-9.9,4-13.1v-9.1l4-7c-1-3.7-.7-6,1-7l-2-7-2-2v-3c1.7-1,2-3.4,1-7l-3.5-1.5c-.8,1.5-1.7,1.3-2.5-.5.6-2.3-.9-2.8-4.5-1.5l-5,4-2-1-5,3-7.6-5-1-4-3-1.5c.5-1.5,0-2-1.5-1.5-1.8-.8-2-1.7-.5-2.5.5-1.5,0-2-1.5-1.5l.5-1.5v-8.3l-2-5,7.1-14.1-1-3,3.5-4.5h3c2-3.1,5.3-4.8,10.1-5l3,5c4.2.2,7.2,1.5,9.1,4,1.8-.8,2-1.7.5-2.5l.5-2.5,5,1,1.5-2.5-4.5-7.5-3,1-2.5-1-2.5-4c-1.5-.5-2,0-1.5,1.5l.5,1.5c-1.5.5-2,0-1.5-1.5-1-3-3.3-4.2-7.1-3.5.8-1.8.3-2.5-1.5-2l-2.5-1,2.5,4,2.5,1.5-1.5.5c-.8-2.5-2.7-3.5-5.5-3v2c-2.5-1-3.5-.5-3,1.5v2c1,4.7.5,6.9-1.5,6.5l-2,1-2-1-1.5.5-4-8.1,7.1-.5c.7-3.1-.2-5.2-2.5-6l-3.5-1.5,3-2,2.5-6.5,4.5-1-2-5h-2c1-2.5.5-3.5-1.5-3h-2l-5-4h-2l5,6,4.5,3.5-.5,1.5-.5-2-4.5-2-2,1-3.5-2.5v-3l-4.5-5.7Z"/>
      <path class="st5" d="M294,181.4l5.5,3c.8,1.8.2,2.4-1.5,2l-2.5-1-1.5-4Z"/>
    </g>
    <path class="st5" d="M205,247.1l.5,1.5-1,3.5h2c-1-2.5-.5-3.5,1.5-3l1-1,3,3h2l2,1,3-1,3.5,2c-.8,1.8-.2,2.4,1.5,2l1.5,3,8.5,2,4.5,3.5,2,4-2,4,1.5-.5,2.5.5-3,2,4,.5c-.9-2.2.3-2.9,3.5-2l2.5,1c-.9,2.2.3,2.9,3.5,2,.8,1.5,2.8,1.8,6,1l5,4h2.5v5.5l-5,6.5c-2.7-.9-3.3.9-2,5.5-.6,4.4-2.4,7.6-5.5,9.5h-3l-7.5,4.5c.7,3,.2,4.8-1.5,5.5l-2.5,1.5-1.5,3.5-6.5.5c1.8.7,2.5,2.2,2,4.5h-5.5l-.5,2h-2.5l1.5,2.5c.4,1.8-.2,2.2-2,1.5v2l3,.5-2,3.5,3,1.5-1.5-.5h-2l-5.5-4.5-2-3,1-2-5-7-3-24-4.5-4.5-5.5-3.5-9-17,2-3-1-5,5-6v-5l-2.1-2.5-.9.7-.3-.3h-.9c0-.1-1.2-.5-1.2-.5l-.5-.8v-.7c.1,0,2.4,1.2,2.4,1.2l.6-.3.5-.6,1.1.3c.4.8.6,1.3,1.9,1l4-5,2.9-1Z"/>
  </g>
  <g>
    <path class="st4" d="M331,381.1l21.5,47.5c.3.9,3.3,4.4,6,4l-21.5.5c3.2-.4,4-1.9,3.5-3.5l-5.3-11.5h-15.2l-5.5,11.5s-1.9,2.8,4,3l-13.5.5c3.4,0,5.7-4.5,5.5-4.5l20.5-47.5ZM327.6,398.5l-7.1,17.6h14l-6.9-17.6Z"/>
    <ellipse class="st4" cx="293.4" cy="428.4" rx="6.1" ry="5.7"/>
    <ellipse class="st4" cx="216.5" cy="428.3" rx="6.1" ry="5.7"/>
    <path class="st4" d="M254.5,381.6l21.5,47.5c.3.9,3.3,4.4,6,4l-21.5.5c3.2-.4,4-1.9,3.5-3.5l-5.3-11.5h-15.2l-5.5,11.5s-1.9,2.8,4,3l-13.5.5c3.4,0,5.7-4.5,5.5-4.5l20.5-47.5ZM251.1,399l-7.1,17.6h14l-6.9-17.6Z"/>
    <path class="st4" d="M178.3,380.7l21.5,47.5c.3.9,3.3,4.4,6,4l-21.5.5c3.2-.4,4-1.9,3.5-3.5l-5.3-11.5h-15.2l-5.5,11.5s-1.9,2.8,4,3l-13.5.5c3.4,0,5.7-4.5,5.5-4.5l20.5-47.5ZM174.9,398.2l-7.1,17.6h14l-6.9-17.6Z"/>
  </g>
</svg>